<svg xmlns="http://www.w3.org/2000/svg" width="300" height="324" viewBox="0 0 300 324" fill="none">
  <g filter="url(#filter0_f_293_73)">
    <path fill-rule="evenodd" clip-rule="evenodd" d="M307.419 182.802C303.848 210.708 254.101 218.605 223.863 235.978C194.742 252.709 174.035 277.651 136.327 281.102C90.0446 285.339 34.0297 282.614 4.24391 256.08C-25.2398 229.815 -10.0069 192.605 1.58135 161.068C10.676 136.317 37.3802 120.234 61.1174 101.301C91.5533 77.0263 110.571 33.2947 157.212 36.9399C203.907 40.5894 211.202 87.9283 239.316 115.229C263.255 138.475 311.004 154.79 307.419 182.802Z" fill="url(#paint0_linear_293_73)" fill-opacity="0.5"/>
  </g>
  <defs>
    <filter id="filter0_f_293_73" x="-262.831" y="-213.274" width="820.441" height="745.991" filterUnits="userSpaceOnUse" color-interpolation-filters="sRGB">
      <feFlood flood-opacity="0" result="BackgroundImageFix"/>
      <feBlend mode="normal" in="SourceGraphic" in2="BackgroundImageFix" result="shape"/>
      <feGaussianBlur stdDeviation="125" result="effect1_foregroundBlur_293_73"/>
    </filter>
    <linearGradient id="paint0_linear_293_73" x1="308.287" y1="172.897" x2="-6.96567" y2="145.932" gradientUnits="userSpaceOnUse">
      <stop stop-color="#EC66B7"/>
      <stop offset="1" stop-color="#546BF6"/>
    </linearGradient>
  </defs>
</svg>