<svg width="300" height="374" viewBox="0 0 300 374" fill="none" xmlns="http://www.w3.org/2000/svg">
<g filter="url(#filter0_f_334_514)">
<path fill-rule="evenodd" clip-rule="evenodd" d="M307.485 207.371C303.914 235.277 254.167 243.174 223.929 260.547C194.808 277.279 174.101 302.22 136.393 305.672C90.1108 309.908 34.0959 307.183 4.3101 280.649C-25.1736 254.385 -9.9407 217.174 1.64754 185.637C10.7422 160.887 37.4464 144.803 61.1836 125.871C91.6195 101.596 110.637 57.864 157.278 61.5092C203.973 65.1587 211.268 112.498 239.382 139.798C263.321 163.044 311.07 179.359 307.485 207.371Z" fill="url(#paint0_linear_334_514)" fill-opacity="0.5"/>
</g>
<defs>
<filter id="filter0_f_334_514" x="-262.765" y="-188.705" width="820.441" height="745.991" filterUnits="userSpaceOnUse" color-interpolation-filters="sRGB">
<feFlood flood-opacity="0" result="BackgroundImageFix"/>
<feBlend mode="normal" in="SourceGraphic" in2="BackgroundImageFix" result="shape"/>
<feGaussianBlur stdDeviation="125" result="effect1_foregroundBlur_334_514"/>
</filter>
<linearGradient id="paint0_linear_334_514" x1="308.354" y1="197.467" x2="-6.89951" y2="170.501" gradientUnits="userSpaceOnUse">
<stop stop-color="#EC66B7"/>
<stop offset="1" stop-color="#546BF6"/>
</linearGradient>
</defs>
</svg>
