<svg xmlns="http://www.w3.org/2000/svg" width="300" height="300" viewBox="0 0 30 30" fill="none">
  <path d="M15 25.6252H8.75C5 25.6252 2.5 23.7502 2.5 19.3752V10.6252C2.5 6.25024 5 4.37524 8.75 4.37524H21.25C25 4.37524 27.5 6.25024 27.5 10.6252V14.3752" stroke="url(#paint0_linear_294_188)" stroke-width="1.5" stroke-miterlimit="10" stroke-linecap="round" stroke-linejoin="round"/>
  <path d="M21.25 11.25L17.3375 14.375C16.05 15.4 13.9375 15.4 12.65 14.375L8.75 11.25" stroke="url(#paint1_linear_294_188)" stroke-width="1.5" stroke-miterlimit="10" stroke-linecap="round" stroke-linejoin="round"/>
  <path d="M24.0125 18.4635L19.5876 22.8885C19.4126 23.0635 19.25 23.3885 19.2125 23.626L18.975 25.3135C18.8875 25.926 19.3126 26.351 19.9251 26.2635L21.6126 26.026C21.8501 25.9885 22.1876 25.826 22.3501 25.651L26.7751 21.226C27.5376 20.4635 27.9001 19.576 26.7751 18.451C25.6626 17.3385 24.775 17.701 24.0125 18.4635Z" stroke="url(#paint2_linear_294_188)" stroke-width="1.5" stroke-miterlimit="10" stroke-linecap="round" stroke-linejoin="round"/>
  <path d="M23.3752 19.1008C23.7502 20.4508 24.8002 21.5008 26.1502 21.8758" stroke="url(#paint3_linear_294_188)" stroke-width="1.5" stroke-miterlimit="10" stroke-linecap="round" stroke-linejoin="round"/>
  <defs>
    <linearGradient id="paint0_linear_294_188" x1="15" y1="4.37524" x2="15" y2="25.6252" gradientUnits="userSpaceOnUse">
      <stop stop-color="white"/>
      <stop offset="1" stop-color="white" stop-opacity="0.5"/>
    </linearGradient>
    <linearGradient id="paint1_linear_294_188" x1="15" y1="11.25" x2="15" y2="15.1437" gradientUnits="userSpaceOnUse">
      <stop stop-color="white"/>
      <stop offset="1" stop-color="white" stop-opacity="0.5"/>
    </linearGradient>
    <linearGradient id="paint2_linear_294_188" x1="23.2265" y1="17.7472" x2="23.2265" y2="26.2749" gradientUnits="userSpaceOnUse">
      <stop stop-color="white"/>
      <stop offset="1" stop-color="white" stop-opacity="0.5"/>
    </linearGradient>
    <linearGradient id="paint3_linear_294_188" x1="24.7627" y1="19.1008" x2="24.7627" y2="21.8758" gradientUnits="userSpaceOnUse">
      <stop stop-color="white"/>
      <stop offset="1" stop-color="white" stop-opacity="0.5"/>
    </linearGradient>
  </defs>
</svg>