<svg xmlns="http://www.w3.org/2000/svg" width="40" height="40" viewBox="0 0 40 40" fill="none">
  <rect width="40" height="40" rx="20" fill="#00A7E1"/>
  <path d="M20 9C13.9353 9 9 13.9353 9 20C9 26.0647 13.9353 31 20 31C26.0647 31 31 26.0647 31 20C31 13.9353 26.0647 9 20 9ZM20 10.8333C25.0737 10.8333 29.1667 14.9263 29.1667 20C29.1689 22.1945 28.382 24.3166 26.9496 25.979C25.5171 27.6415 23.5347 28.7335 21.364 29.0557V22.673H23.9747L24.3844 20.0211H21.364V18.5728C21.364 17.4727 21.7261 16.4947 22.7555 16.4947H24.4101V14.181C24.1195 14.1416 23.5044 14.0563 22.3421 14.0563C19.9148 14.0563 18.4921 15.3378 18.4921 18.2583V20.0211H15.9969V22.673H18.4921V29.0328C16.3514 28.6805 14.4058 27.5785 13.0028 25.9238C11.5998 24.2691 10.8308 22.1694 10.8333 20C10.8333 14.9263 14.9263 10.8333 20 10.8333Z" fill="white"/>
</svg>