<svg width="1512" height="580" viewBox="0 0 1512 580" fill="none" xmlns="http://www.w3.org/2000/svg">
<path d="M684.882 419.53C684.425 419.53 683.981 419.296 683.73 418.875L638.077 342.176C637.701 341.539 637.907 340.71 638.55 340.328C639.17 339.946 640.006 340.151 640.39 340.795L686.042 417.493C686.419 418.13 686.212 418.96 685.569 419.341C685.355 419.471 685.119 419.53 684.882 419.53Z" fill="#00A7E1"/>
<path d="M639.237 342.836C638.919 342.836 638.602 342.728 638.35 342.502C637.789 342.014 637.73 341.162 638.225 340.602L675.095 298.14C674.954 297.965 674.85 297.758 674.813 297.528C674.732 297.11 674.858 296.677 675.154 296.366L697.891 271.897C698.386 271.36 699.228 271.315 699.767 271.816C700.314 272.308 700.366 273.145 699.885 273.701L678.226 298.644C678.204 298.669 678.182 298.691 678.16 298.717L640.249 342.369C639.984 342.677 639.607 342.836 639.237 342.836Z" fill="#00A7E1"/>
<path d="M698.873 274.163C698.585 274.163 698.297 274.071 698.046 273.882L644.231 232.05C643.647 231.594 643.544 230.749 644.002 230.157C644.453 229.564 645.295 229.467 645.885 229.919L699.701 271.749C700.284 272.208 700.388 273.052 699.93 273.641C699.671 273.986 699.272 274.163 698.873 274.163Z" fill="#00A7E1"/>
<path d="M1265.33 541.265C1265.07 541.265 1264.81 541.191 1264.58 541.031C1263.97 540.617 1263.8 539.78 1264.22 539.161L1286.87 505.548C1287.28 504.929 1288.12 504.769 1288.73 505.188C1289.35 505.603 1289.51 506.44 1289.1 507.059L1266.45 540.672C1266.19 541.057 1265.76 541.265 1265.33 541.265Z" fill="#00A7E1"/>
<path d="M1018.29 251.225C1018.26 251.225 1018.22 251.221 1018.18 251.218C1017.44 251.158 1016.89 250.511 1016.95 249.766C1017.01 249.028 1017.75 248.292 1018.41 248.373C1019.15 248.432 1019.72 248.925 1019.66 249.665L1019.63 249.988C1019.57 250.692 1018.99 251.225 1018.29 251.225Z" fill="#00A7E1"/>
<path d="M802.411 423.767H802.367L684.838 419.53C684.099 419.504 683.515 418.878 683.538 418.133C683.567 417.389 684.239 416.819 684.934 416.833L802.462 421.071C803.202 421.097 803.786 421.723 803.755 422.467C803.733 423.197 803.135 423.767 802.411 423.767Z" fill="#00A7E1"/>
<path d="M802.411 423.767C802.071 423.767 801.724 423.634 801.458 423.364C800.934 422.834 800.949 421.978 801.473 421.46L873.859 350.003C874.384 349.48 875.234 349.48 875.758 350.017C876.282 350.547 876.275 351.403 875.75 351.921L803.357 423.378C803.098 423.637 802.758 423.767 802.411 423.767Z" fill="#00A7E1"/>
<path d="M989.386 379.642C989.002 379.642 988.618 379.475 988.352 379.149C987.88 378.575 987.961 377.727 988.537 377.253L1041.16 333.934C1041.73 333.464 1042.58 333.545 1043.05 334.12C1043.53 334.698 1043.45 335.546 1042.87 336.02L990.236 379.338C989.992 379.545 989.689 379.642 989.386 379.642Z" fill="#00A7E1"/>
<path d="M1005.98 637.398C1005.43 637.398 1004.91 637.065 1004.71 636.52L967.735 536.931C967.484 536.231 967.831 535.457 968.533 535.194C969.205 534.935 970.003 535.291 970.261 535.987L1007.23 635.579C1007.49 636.276 1007.14 637.053 1006.44 637.313C1006.29 637.372 1006.13 637.398 1005.98 637.398Z" fill="#00A7E1"/>
<path d="M968.998 537.809C968.643 537.809 968.281 537.665 968.016 537.38C967.513 536.839 967.535 535.987 968.082 535.476L1037.46 470.311C1038 469.807 1038.85 469.826 1039.37 470.374C1039.87 470.915 1039.84 471.767 1039.3 472.278L969.914 537.446C969.663 537.687 969.33 537.809 968.998 537.809Z" fill="#00A7E1"/>
<path d="M252.293 537.917C251.591 537.917 250.992 537.372 250.955 536.657C250.904 535.913 251.465 535.272 252.212 535.224L314.987 531.197C315.704 531.112 316.369 531.716 316.406 532.457C316.457 533.202 315.896 533.842 315.158 533.89L252.374 537.917H252.293Z" fill="#00A7E1"/>
<path d="M615.082 509.907C614.793 509.907 614.505 509.814 614.254 509.626C613.67 509.17 613.56 508.322 614.017 507.732L683.826 417.356C684.276 416.763 685.111 416.659 685.71 417.114C686.293 417.57 686.404 418.418 685.946 419.008L616.138 509.384C615.879 509.729 615.48 509.907 615.082 509.907Z" fill="#00A7E1"/>
<path d="M501.113 519.549C500.419 519.549 499.835 519.019 499.776 518.316C499.709 517.571 500.264 516.923 500.995 516.86L614.963 507.218C615.79 507.166 616.359 507.707 616.418 508.448C616.485 509.188 615.931 509.841 615.192 509.904L501.231 519.545C501.187 519.549 501.15 519.549 501.113 519.549Z" fill="#00A7E1"/>
<path d="M501.113 519.549C500.581 519.549 500.079 519.23 499.872 518.707L469.828 444.043L380.119 451.98C379.41 452.055 378.73 451.492 378.665 450.754C378.598 450.014 379.144 449.358 379.883 449.295L470.582 441.272C471.195 441.265 471.727 441.565 471.941 442.11L502.361 517.696C502.634 518.389 502.302 519.175 501.616 519.452C501.445 519.519 501.283 519.549 501.113 519.549Z" fill="#00A7E1"/>
<path d="M594.117 714.845C593.873 714.845 593.622 714.778 593.393 714.63C592.765 714.229 592.587 713.4 592.987 712.77L661.34 605.495L613.87 509.159C613.545 508.489 613.818 507.681 614.483 507.352C615.148 507.025 615.961 507.295 616.285 507.962L664.095 604.985C664.302 605.407 664.272 605.91 664.021 606.307L595.255 714.223C594.996 714.626 594.56 714.845 594.117 714.845Z" fill="#00A7E1"/>
<path d="M782.377 610.77C782.097 610.77 781.809 610.681 781.565 610.499C780.974 610.051 780.855 609.207 781.306 608.611L850.524 516.47C850.967 515.87 851.816 515.76 852.4 516.203C852.998 516.652 853.116 517.497 852.666 518.093L783.449 610.233C783.182 610.584 782.784 610.77 782.377 610.77Z" fill="#00A7E1"/>
<path d="M475.369 715.537C474.866 715.537 474.372 715.245 474.15 714.748L429.413 616.793C429.214 616.356 429.258 615.837 429.547 615.449L500.02 517.415C500.455 516.807 501.29 516.671 501.904 517.112C502.502 517.545 502.635 518.385 502.206 518.989L432.184 616.386L476.595 713.63C476.906 714.304 476.61 715.104 475.931 715.415C475.753 715.496 475.561 715.537 475.369 715.537Z" fill="#00A7E1"/>
<path d="M336.469 623.56C335.849 623.56 335.309 623.134 335.162 622.523L313.761 532.857C313.591 532.134 314.034 531.405 314.758 531.231C315.475 531.06 316.206 531.505 316.376 532.231L337.51 620.793L430.551 614.889C431.312 614.848 431.933 615.408 431.977 616.148C432.022 616.893 431.46 617.534 430.721 617.578L336.55 623.556C336.528 623.56 336.491 623.56 336.469 623.56Z" fill="#00A7E1"/>
<path d="M968.998 537.809C968.931 537.809 968.857 537.802 968.784 537.791L851.38 518.611C850.959 518.542 850.597 518.282 850.398 517.901L801.222 423.042C800.882 422.379 801.133 421.568 801.798 421.223C802.455 420.882 803.268 421.134 803.608 421.797L852.474 516.06L969.212 535.132C969.951 535.246 970.438 535.943 970.328 536.676C970.217 537.339 969.648 537.809 968.998 537.809Z" fill="#00A7E1"/>
<path d="M835.852 302.14C835.491 302.14 835.129 301.992 834.863 301.703L812.133 276.871C811.637 276.323 811.674 275.471 812.221 274.967C812.768 274.474 813.61 274.504 814.12 275.049L836.849 299.88C837.345 300.428 837.308 301.28 836.761 301.784C836.502 302.021 836.178 302.14 835.852 302.14Z" fill="#00A7E1"/>
<path d="M813.13 277.308C812.709 277.308 812.295 277.116 812.037 276.752C811.608 276.145 811.741 275.304 812.339 274.867L868.378 234.334C868.984 233.894 869.826 234.031 870.262 234.635C870.69 235.242 870.557 236.087 869.959 236.52L813.913 277.053C813.677 277.226 813.403 277.308 813.13 277.308Z" fill="#00A7E1"/>
<path d="M1138.59 520.527C1138.22 520.527 1137.86 520.378 1137.59 520.086C1137.09 519.534 1137.14 518.682 1137.69 518.182L1186.93 473.282C1187.48 472.778 1188.33 472.815 1188.83 473.371C1189.33 473.923 1189.29 474.775 1188.74 475.275L1139.49 520.178C1139.23 520.411 1138.92 520.527 1138.59 520.527Z" fill="#00A7E1"/>
<path d="M1139.57 384.072C1139.17 384.072 1138.78 383.894 1138.5 383.553C1138.05 382.968 1138.16 382.12 1138.74 381.66L1169.36 357.714C1169.93 357.251 1170.78 357.358 1171.24 357.947C1171.7 358.536 1171.59 359.381 1171.01 359.84L1140.39 383.786C1140.15 383.979 1139.85 384.072 1139.57 384.072Z" fill="#00A7E1"/>
<path d="M874.805 352.31C874.406 352.31 874.007 352.132 873.741 351.792L834.796 301.622C834.338 301.029 834.442 300.184 835.032 299.725C835.601 299.266 836.466 299.373 836.916 299.962L875.861 350.133C876.319 350.721 876.215 351.566 875.625 352.025C875.389 352.218 875.093 352.31 874.805 352.31Z" fill="#00A7E1"/>
<path d="M637.051 343.043C636.733 343.043 636.416 342.932 636.164 342.706C635.61 342.213 635.551 341.357 636.046 340.802L675.124 296.391C675.619 295.836 676.468 295.776 677.022 296.273C677.576 296.765 677.628 297.617 677.141 298.176L638.055 342.587C637.789 342.887 637.42 343.043 637.051 343.043Z" fill="#00A7E1"/>
<path d="M1169.88 632.142C1169.29 632.142 1168.75 631.753 1168.59 631.16L1137.3 519.545C1137.09 518.827 1137.51 518.082 1138.23 517.881C1138.94 517.682 1139.68 518.1 1139.88 518.811L1171.18 630.427C1171.38 631.146 1170.95 631.89 1170.25 632.09C1170.12 632.127 1170 632.142 1169.88 632.142Z" fill="#00A7E1"/>
<path d="M535.071 257.774C535.012 257.774 534.961 257.774 534.909 257.766L481.981 251.284C481.249 251.195 480.724 250.525 480.813 249.784C480.902 249.047 481.508 248.518 482.313 248.61L535.234 255.088C535.966 255.181 536.49 255.851 536.401 256.588C536.32 257.274 535.736 257.774 535.071 257.774Z" fill="#00A7E1"/>
<path d="M535.071 257.774C534.451 257.774 533.904 257.355 533.757 256.729C533.594 256.007 534.045 255.281 534.761 255.114L644.526 229.723L702.139 192.172C702.781 191.765 703.601 191.946 704 192.565C704.407 193.191 704.229 194.025 703.609 194.432L645.797 232.113C645.657 232.201 645.516 232.261 645.361 232.298L535.375 257.74C535.264 257.766 535.167 257.774 535.071 257.774Z" fill="#00A7E1"/>
<path d="M702.877 194.65C702.789 194.65 702.707 194.643 702.618 194.624L651.005 184.679C650.281 184.535 649.801 183.831 649.941 183.097C650.081 182.367 650.791 181.886 651.515 182.027L703.128 191.975C703.852 192.117 704.333 192.824 704.192 193.557C704.074 194.202 703.513 194.65 702.877 194.65Z" fill="#00A7E1"/>
<path d="M867.085 186.498C867.012 186.498 866.938 186.494 866.856 186.479L821.877 178.857L716.1 177.242C715.354 177.23 714.763 176.619 714.771 175.871C714.785 175.134 715.383 174.545 716.115 174.545H716.137L822.12 176.178L867.307 183.82C868.038 183.942 868.533 184.639 868.408 185.371C868.297 186.031 867.728 186.498 867.085 186.498Z" fill="#00A7E1"/>
<path d="M1239.92 418.696C1239.61 418.696 1239.31 418.597 1239.06 418.385L1169.32 359.811L1109.27 296.047C1108.76 295.506 1108.78 294.654 1109.32 294.143C1109.87 293.632 1110.72 293.654 1111.23 294.198L1171.16 357.851L1240.78 416.315C1241.35 416.797 1241.43 417.645 1240.95 418.215C1240.68 418.534 1240.3 418.696 1239.92 418.696Z" fill="#00A7E1"/>
<path d="M1331.53 578.345C1331.08 578.345 1330.65 578.12 1330.39 577.709L1286.84 507.01L1238.74 417.993C1238.38 417.337 1238.63 416.522 1239.28 416.167C1239.94 415.812 1240.75 416.056 1241.09 416.707L1289.16 505.662L1332.68 576.29C1333.06 576.923 1332.87 577.757 1332.24 578.15C1332.02 578.282 1331.77 578.345 1331.53 578.345Z" fill="#00A7E1"/>
<path d="M274.668 408.744C274.336 408.744 274.004 408.622 273.745 408.377C273.206 407.866 273.184 407.014 273.693 406.47L350.556 324.623L409.136 285.824C409.749 285.412 410.592 285.583 411.005 286.205C411.412 286.828 411.241 287.665 410.621 288.072L352.278 326.671L275.643 408.318C275.385 408.6 275.023 408.744 274.668 408.744Z" fill="#00A7E1"/>
<path d="M391.252 373.097L341.655 372.811C340.908 372.808 340.31 372.201 340.317 371.456C340.325 370.715 340.923 370.115 341.662 370.115L391.259 370.4C392.005 370.408 392.603 371.011 392.597 371.756C392.597 372.5 391.991 373.097 391.252 373.097Z" fill="#00A7E1"/>
<path d="M351.531 326.893C351.051 326.893 350.586 326.634 350.35 326.179C350.002 325.519 350.246 324.704 350.903 324.356L385.696 305.881L481.456 248.787C482.091 248.406 482.919 248.614 483.303 249.258C483.68 249.899 483.472 250.729 482.837 251.106L387.019 308.229L352.166 326.738C351.968 326.845 351.746 326.893 351.531 326.893Z" fill="#00A7E1"/>
<path d="M341.655 372.812C341.381 372.812 341.116 372.734 340.886 372.571C340.274 372.149 340.125 371.308 340.547 370.697L385.224 306.3C385.653 305.688 386.494 305.537 387.093 305.962C387.706 306.389 387.854 307.229 387.432 307.84L342.756 372.234C342.489 372.611 342.076 372.812 341.655 372.812Z" fill="#00A7E1"/>
<path d="M1110.25 296.469C1110.05 296.469 1109.85 296.424 1109.66 296.332L1017.72 250.762L961.795 211.896C961.182 211.474 961.034 210.633 961.456 210.022C961.877 209.403 962.719 209.266 963.325 209.681L1019.08 248.447L1110.84 293.913C1111.51 294.243 1111.78 295.05 1111.45 295.72C1111.22 296.191 1110.74 296.469 1110.25 296.469Z" fill="#00A7E1"/>
<path d="M979.761 266.289C979.221 266.289 978.719 265.97 978.505 265.44C978.232 264.752 978.572 263.967 979.258 263.689L1017.82 248.302C1018.49 248.032 1019.29 248.358 1019.57 249.058C1019.84 249.747 1019.5 250.532 1018.82 250.81L980.256 266.196C980.094 266.259 979.923 266.289 979.761 266.289Z" fill="#00A7E1"/>
<path d="M989.386 379.642C989.29 379.642 989.187 379.634 989.076 379.605L874.495 352.273C873.771 352.102 873.32 351.376 873.498 350.651C873.667 349.928 874.376 349.466 875.115 349.651L989.697 376.982C990.421 377.157 990.871 377.883 990.694 378.605C990.546 379.227 989.999 379.642 989.386 379.642Z" fill="#00A7E1"/>
<path d="M1138.59 520.527C1138.39 520.527 1138.19 520.486 1138.01 520.397L1037.8 472.512C1037.13 472.193 1036.85 471.389 1037.17 470.715C1037.49 470.045 1038.31 469.767 1038.96 470.078L1139.17 517.963C1139.84 518.282 1140.12 519.085 1139.8 519.756C1139.57 520.241 1139.09 520.527 1138.59 520.527Z" fill="#00A7E1"/>
<path d="M1038.38 472.646C1037.9 472.646 1037.44 472.382 1037.2 471.923L988.204 378.924C987.857 378.268 988.101 377.449 988.759 377.101C989.423 376.768 990.228 377.005 990.576 377.668L1039.57 470.667C1039.91 471.323 1039.67 472.142 1039.01 472.49C1038.81 472.593 1038.6 472.646 1038.38 472.646Z" fill="#00A7E1"/>
<path d="M1038.98 473.789C1038.5 473.789 1038.03 473.527 1037.79 473.067L1037.19 471.922C1037.09 471.723 1037.04 471.508 1037.04 471.297C1037.04 470.812 1037.3 470.342 1037.76 470.1C1038.42 469.76 1039.23 470.012 1039.57 470.671L1040.17 471.815C1040.28 472.016 1040.33 472.227 1040.33 472.437C1040.33 472.927 1040.06 473.393 1039.6 473.634C1039.4 473.738 1039.19 473.789 1038.98 473.789Z" fill="#00A7E1"/>
<path d="M148.268 752.626C148.179 752.626 148.09 752.618 148.002 752.599C147.27 752.447 146.805 751.737 146.945 751.007L168.265 646.732L183.497 566.026C183.637 565.293 184.346 564.815 185.07 564.952C185.802 565.093 186.281 565.796 186.141 566.53L170.901 647.254L149.583 751.548C149.457 752.184 148.888 752.626 148.268 752.626Z" fill="#00A7E1"/>
<path d="M315.068 533.894C314.773 533.894 314.485 533.798 314.234 533.601C313.65 533.135 313.561 532.291 314.02 531.705L378.723 450.077L390.735 372.611C390.853 371.875 391.562 371.375 392.264 371.486C393.003 371.6 393.505 372.29 393.394 373.026L381.331 450.847C381.294 451.073 381.198 451.291 381.05 451.477L316.117 533.383C315.859 533.716 315.46 533.894 315.068 533.894Z" fill="#00A7E1"/>
<path d="M813.13 277.308H813.093L698.836 274.163C698.098 274.141 697.506 273.522 697.529 272.778C697.551 272.034 698.231 271.304 698.91 271.467L813.167 274.612C813.905 274.634 814.497 275.253 814.474 275.997C814.452 276.73 813.854 277.308 813.13 277.308Z" fill="#00A7E1"/>
<path d="M233.138 473.405C232.643 473.405 232.163 473.126 231.927 472.652C231.602 471.985 231.875 471.175 232.54 470.848L265.804 454.414L340.65 370.567C341.153 370.016 342.002 369.967 342.548 370.463C343.103 370.956 343.147 371.812 342.652 372.363L267.636 456.403C267.518 456.533 267.385 456.636 267.23 456.715L233.729 473.264C233.537 473.36 233.337 473.405 233.138 473.405Z" fill="#00A7E1"/>
<path d="M203.434 635.835C203.228 635.835 203.028 635.787 202.828 635.691C202.171 635.358 201.906 634.55 202.23 633.883L251 536.143L265.309 455.27C265.434 454.533 266.151 454.047 266.868 454.177C267.599 454.307 268.087 455.007 267.953 455.74L253.615 536.806C253.593 536.935 253.549 537.058 253.497 537.172L204.639 635.091C204.402 635.561 203.929 635.835 203.434 635.835Z" fill="#00A7E1"/>
<path d="M1335.86 724.434C1335.41 724.434 1334.98 724.215 1334.73 723.815L1290.03 654.114C1289.95 653.984 1289.88 653.84 1289.84 653.684L1264.02 540.217C1263.85 539.491 1264.3 538.769 1265.04 538.602C1265.75 538.427 1266.47 538.891 1266.65 539.617L1292.42 652.855L1336.99 722.356C1337.39 722.982 1337.21 723.815 1336.58 724.219C1336.36 724.364 1336.11 724.434 1335.86 724.434Z" fill="#00A7E1"/>
<path d="M1139.57 384.072C1139.37 384.072 1139.17 384.027 1138.98 383.935L1041.43 336.191C1041.27 336.113 1041.13 336.006 1041.01 335.876L978.756 265.841C978.261 265.285 978.305 264.433 978.867 263.937C979.407 263.44 980.263 263.485 980.758 264.044L1042.85 333.883L1140.16 381.513C1140.82 381.839 1141.1 382.646 1140.78 383.317C1140.54 383.794 1140.07 384.072 1139.57 384.072Z" fill="#00A7E1"/>
<path d="M1265.33 541.265C1265.03 541.265 1264.72 541.157 1264.47 540.947L1186.97 475.308C1186.84 475.197 1186.73 475.06 1186.65 474.908L1138.38 383.353C1138.03 382.694 1138.28 381.882 1138.94 381.53C1139.59 381.194 1140.41 381.434 1140.76 382.093L1188.9 473.419L1266.2 538.887C1266.76 539.365 1266.84 540.217 1266.36 540.787C1266.09 541.102 1265.72 541.265 1265.33 541.265Z" fill="#00A7E1"/>
<path d="M813.432 196.243L702.855 194.651C702.109 194.639 701.518 194.025 701.533 193.284C701.541 192.543 702.139 191.954 702.877 191.954H702.892L813.211 193.569L866.842 183.823C867.595 183.705 868.274 184.175 868.408 184.909C868.541 185.642 868.053 186.346 867.322 186.476L813.432 196.243Z" fill="#00A7E1"/>
<path d="M979.761 266.289C979.643 266.289 979.525 266.278 979.414 266.245L868.821 236.732C868.666 236.687 868.519 236.616 868.378 236.52L812.406 196.01C811.808 195.577 811.667 194.732 812.096 194.128C812.532 193.528 813.367 193.391 813.979 193.824L869.759 234.191L980.1 263.641C980.818 263.833 981.246 264.571 981.054 265.289C980.898 265.893 980.352 266.289 979.761 266.289Z" fill="#00A7E1"/>
<path d="M482.15 251.295C481.7 251.295 481.264 251.073 481.012 250.67C480.614 250.039 480.806 249.206 481.426 248.806L539.711 211.777C540.331 211.388 541.174 211.566 541.565 212.196C541.963 212.826 541.772 213.656 541.151 214.055L482.866 251.087C482.646 251.229 482.394 251.295 482.15 251.295Z" fill="#00A7E1"/>
<path d="M409.882 288.298C409.424 288.298 408.974 288.061 408.722 287.639C408.346 286.998 408.56 286.168 409.195 285.79L501.638 230.657C502.265 230.275 503.1 230.479 503.484 231.123C503.861 231.764 503.647 232.593 503.011 232.971L410.569 288.109C410.355 288.235 410.119 288.298 409.882 288.298Z" fill="#00A7E1"/>
<path d="M1325.26 560.259C1324.79 560.259 1324.33 560.011 1324.09 559.574L1276.21 474.012L1234.45 403.34C1234.08 402.7 1234.28 401.874 1234.93 401.492C1235.54 401.114 1236.38 401.321 1236.77 401.966L1278.53 472.664L1326.43 558.252C1326.79 558.9 1326.56 559.722 1325.91 560.085C1325.71 560.203 1325.48 560.259 1325.26 560.259Z" fill="#00A7E1"/>
<path d="M1164.73 333.765C1164.41 333.765 1164.09 333.653 1163.84 333.431L1107.94 284.435L1018.51 233.461C1017.86 233.091 1017.64 232.268 1018 231.624C1018.37 230.972 1019.19 230.742 1019.84 231.116L1109.49 282.249L1165.61 331.397C1166.17 331.89 1166.23 332.742 1165.74 333.301C1165.47 333.609 1165.1 333.765 1164.73 333.765Z" fill="#00A7E1"/>
<path d="M392.234 373.105C391.777 373.105 391.326 372.867 391.075 372.442C390.698 371.801 390.905 370.975 391.548 370.593L487.403 313.689L534.022 255.581C534.488 255.007 535.338 254.91 535.907 255.378C536.49 255.844 536.578 256.692 536.113 257.274L489.338 315.57C489.242 315.696 489.124 315.8 488.976 315.885L392.914 372.916C392.7 373.042 392.464 373.105 392.234 373.105Z" fill="#00A7E1"/>
<path d="M538.152 358.515C537.502 358.515 536.925 358.041 536.823 357.374C536.704 356.64 537.214 355.948 537.945 355.836L639.031 340.153C639.762 340.054 640.449 340.546 640.567 341.28C640.678 342.016 640.175 342.706 639.437 342.817L538.351 358.5C538.285 358.511 538.218 358.515 538.152 358.515Z" fill="#00A7E1"/>
<path d="M470.701 443.961C470.405 443.961 470.109 443.869 469.866 443.669C469.282 443.21 469.186 442.362 469.644 441.776L537.096 356.329C537.568 355.748 538.41 355.655 538.987 356.111C539.57 356.574 539.659 357.422 539.208 358.007L471.757 443.45C471.484 443.788 471.092 443.961 470.701 443.961Z" fill="#00A7E1"/>
<path d="M501.593 238.939C501.541 238.939 501.482 238.935 501.423 238.928C500.684 238.831 500.16 238.161 500.256 237.42L500.995 231.642C501.091 230.909 501.675 230.335 502.495 230.475C503.233 230.571 503.758 231.246 503.662 231.987L502.923 237.761C502.834 238.442 502.258 238.939 501.593 238.939Z" fill="#00A7E1"/>
<path d="M1325.26 560.259C1325.15 560.259 1325.02 560.244 1324.9 560.211L1319.08 558.611C1318.36 558.414 1317.94 557.67 1318.13 556.955C1318.33 556.24 1319.05 555.829 1319.79 556.01L1325.62 557.61C1326.33 557.807 1326.75 558.552 1326.56 559.266C1326.39 559.866 1325.85 560.259 1325.26 560.259Z" fill="#00A7E1"/>
<path d="M1323.15 564.645C1322.96 564.645 1322.76 564.604 1322.57 564.511C1321.9 564.189 1321.62 563.385 1321.94 562.715L1324.04 558.326C1324.36 557.659 1325.17 557.378 1325.84 557.696C1326.51 558.019 1326.79 558.826 1326.47 559.496L1324.36 563.882C1324.13 564.363 1323.65 564.645 1323.15 564.645Z" fill="#00A7E1"/>
<path d="M1110.25 296.469C1109.57 296.469 1109 295.969 1108.92 295.284L1107.48 283.582C1107.4 282.846 1107.92 282.172 1108.66 282.083C1109.38 281.971 1110.06 282.52 1110.16 283.257L1111.58 294.957C1111.67 295.695 1111.15 296.369 1110.41 296.458C1110.36 296.465 1110.3 296.469 1110.25 296.469Z" fill="#00A7E1"/>
<path d="M538.152 358.515C537.841 358.515 537.531 358.411 537.28 358.196L487.425 315.751C486.863 315.271 486.789 314.419 487.27 313.852C487.75 313.282 488.606 313.222 489.168 313.696L539.024 356.14C539.585 356.621 539.659 357.473 539.171 358.04C538.913 358.355 538.528 358.515 538.152 358.515Z" fill="#00A7E1"/>
<path d="M178.473 592.91C178.363 592.91 178.252 592.895 178.141 592.869C177.424 592.684 176.981 591.954 177.166 591.232L183.519 565.948C183.703 565.226 184.435 564.815 185.151 564.971C185.868 565.152 186.304 565.886 186.119 566.608L179.774 591.891C179.619 592.499 179.072 592.91 178.473 592.91Z" fill="#00A7E1"/>
<path d="M1235.61 403.999C1235.27 403.999 1234.93 403.873 1234.67 403.611L1163.78 333.376C1163.26 332.85 1163.25 331.997 1163.77 331.468C1164.29 330.942 1165.14 330.931 1165.67 331.457L1236.56 401.695C1237.08 402.218 1237.08 403.073 1236.57 403.603C1236.3 403.866 1235.96 403.999 1235.61 403.999Z" fill="#00A7E1"/>
<path d="M651.264 184.702C650.584 184.702 650.008 184.194 649.926 183.505C649.845 182.768 650.37 182.101 651.109 182.013L715.967 174.553C716.772 174.471 717.371 175.008 717.452 175.741C717.533 176.483 717.009 177.149 716.27 177.234L651.411 184.694C651.36 184.698 651.308 184.702 651.264 184.702Z" fill="#00A7E1"/>
<path d="M1019.17 233.634C1019.02 233.634 1018.85 233.605 1018.69 233.549L962.083 212.051C961.389 211.789 961.042 211.007 961.308 210.314C961.559 209.614 962.342 209.273 963.037 209.529L1019.65 231.027C1020.35 231.29 1020.69 232.068 1020.43 232.764C1020.23 233.305 1019.71 233.634 1019.17 233.634Z" fill="#00A7E1"/>
<path d="M962.564 212.137C962.446 212.137 962.327 212.122 962.216 212.092L866.738 186.453C866.014 186.257 865.593 185.52 865.785 184.801C865.977 184.082 866.738 183.683 867.432 183.846L962.903 209.485C963.627 209.681 964.049 210.418 963.856 211.136C963.701 211.74 963.154 212.137 962.564 212.137Z" fill="#00A7E1"/>
<path d="M1239.92 418.696C1239.34 418.696 1238.8 418.316 1238.63 417.73L1234.32 403.033C1234.11 402.318 1234.52 401.569 1235.23 401.362C1235.94 401.154 1236.69 401.559 1236.9 402.273L1241.21 416.971C1241.41 417.685 1241.01 418.434 1240.3 418.645C1240.17 418.682 1240.04 418.696 1239.92 418.696Z" fill="#00A7E1"/>
<path d="M1354.87 681.246C1354.26 681.246 1353.7 680.82 1353.56 680.198L1330.22 577.301C1330.06 576.572 1330.51 575.849 1331.23 575.686C1331.94 575.52 1332.68 575.972 1332.84 576.701L1356.18 679.598C1356.35 680.324 1355.89 681.05 1355.17 681.213C1355.07 681.235 1354.97 681.246 1354.87 681.246Z" fill="#00A7E1"/>
<path d="M184.819 567.627C184.612 567.627 184.398 567.578 184.206 567.478C183.541 567.137 183.29 566.323 183.622 565.663L231.942 471.442C232.281 470.771 233.101 470.515 233.751 470.856C234.408 471.197 234.667 472.012 234.335 472.671L186.016 566.893C185.772 567.36 185.306 567.627 184.819 567.627Z" fill="#00A7E1"/>
<path d="M233.138 473.405C232.887 473.405 232.628 473.338 232.407 473.189C231.786 472.786 231.602 471.953 232.008 471.326L273.538 406.666C273.944 406.04 274.772 405.859 275.4 406.262C276.02 406.666 276.198 407.5 275.798 408.125L234.268 472.786C234.01 473.186 233.574 473.405 233.138 473.405Z" fill="#00A7E1"/>
<path d="M540.427 214.267C539.836 214.267 539.289 213.867 539.134 213.267C538.935 212.545 539.371 211.807 540.08 211.615L650.916 182.05C651.625 181.853 652.372 182.286 652.556 183.005C652.748 183.727 652.32 184.464 651.603 184.657L540.774 214.223C540.664 214.252 540.545 214.267 540.427 214.267Z" fill="#00A7E1"/>
<path d="M502.324 233.16C501.83 233.16 501.357 232.886 501.12 232.412C500.796 231.746 501.069 230.935 501.734 230.605L539.836 211.707C540.494 211.385 541.314 211.655 541.631 212.318C541.963 212.989 541.69 213.796 541.025 214.126L502.923 233.024C502.731 233.116 502.524 233.16 502.324 233.16Z" fill="#00A7E1"/>
<path d="M1331.53 578.345C1330.97 578.345 1330.46 578.001 1330.26 577.442L1323.99 559.351C1323.75 558.652 1324.11 557.881 1324.82 557.637C1325.51 557.392 1326.28 557.763 1326.53 558.47L1332.81 576.557C1333.04 577.261 1332.68 578.031 1331.98 578.276C1331.83 578.323 1331.68 578.345 1331.53 578.345Z" fill="#00A7E1"/>
<path d="M647.105 341.483C647.105 345.842 643.581 349.377 639.237 349.377C634.886 349.377 631.363 345.842 631.363 341.483C631.363 337.127 634.886 333.594 639.237 333.594C643.581 333.594 647.105 337.127 647.105 341.483Z" fill="white"/>
<path d="M692.749 418.182C692.749 422.541 689.226 426.075 684.882 426.075C680.539 426.075 677.015 422.541 677.015 418.182C677.015 413.822 680.539 410.288 684.882 410.288C689.226 410.288 692.749 413.822 692.749 418.182Z" fill="white"/>
<path d="M647.105 341.483C647.105 345.842 643.581 349.377 639.237 349.377C634.886 349.377 631.363 345.842 631.363 341.483C631.363 337.127 634.886 333.594 639.237 333.594C643.581 333.594 647.105 337.127 647.105 341.483Z" fill="white"/>
<path d="M706.741 272.815C706.741 277.175 703.217 280.708 698.873 280.708C694.53 280.708 691.006 277.175 691.006 272.815C691.006 268.456 694.53 264.922 698.873 264.922C703.217 264.922 706.741 268.456 706.741 272.815Z" fill="white"/>
<path d="M652.933 230.982C652.933 235.342 649.41 238.876 645.059 238.876C640.714 238.876 637.191 235.342 637.191 230.982C637.191 226.627 640.714 223.093 645.059 223.093C649.41 223.093 652.933 226.627 652.933 230.982Z" fill="white"/>
<path d="M706.741 272.815C706.741 277.175 703.217 280.708 698.873 280.708C694.53 280.708 691.006 277.175 691.006 272.815C691.006 268.456 694.53 264.922 698.873 264.922C703.217 264.922 706.741 268.456 706.741 272.815Z" fill="white"/>
<path d="M1273.2 539.917C1273.2 544.276 1269.68 547.81 1265.33 547.81C1260.98 547.81 1257.46 544.276 1257.46 539.917C1257.46 535.557 1260.98 532.027 1265.33 532.027C1269.68 532.027 1273.2 535.557 1273.2 539.917Z" fill="white"/>
<path d="M1295.85 506.303C1295.85 510.663 1292.32 514.193 1287.98 514.193C1283.63 514.193 1280.11 510.663 1280.11 506.303C1280.11 501.944 1283.63 498.41 1287.98 498.41C1292.32 498.41 1295.85 501.944 1295.85 506.303Z" fill="white"/>
<path d="M1026.16 249.877C1026.16 254.236 1022.64 257.77 1018.29 257.77C1013.94 257.77 1010.42 254.236 1010.42 249.877C1010.42 245.517 1013.94 241.983 1018.29 241.983C1022.64 241.983 1026.16 245.517 1026.16 249.877Z" fill="white"/>
<path d="M1026.19 249.555C1026.19 253.914 1022.67 257.448 1018.32 257.448C1013.97 257.448 1010.45 253.914 1010.45 249.555C1010.45 245.195 1013.97 241.662 1018.32 241.662C1022.67 241.662 1026.19 245.195 1026.19 249.555Z" fill="white"/>
<path d="M692.749 418.182C692.749 422.541 689.226 426.075 684.882 426.075C680.539 426.075 677.015 422.541 677.015 418.182C677.015 413.822 680.539 410.288 684.882 410.288C689.226 410.288 692.749 413.822 692.749 418.182Z" fill="white"/>
<path d="M810.286 422.419C810.286 426.779 806.762 430.312 802.411 430.312C798.068 430.312 794.544 426.779 794.544 422.419C794.544 418.06 798.068 414.525 802.411 414.525C806.762 414.525 810.286 418.06 810.286 422.419Z" fill="white"/>
<path d="M810.286 422.419C810.286 426.779 806.762 430.312 802.411 430.312C798.068 430.312 794.544 426.779 794.544 422.419C794.544 418.06 798.068 414.525 802.411 414.525C806.762 414.525 810.286 418.06 810.286 422.419Z" fill="white"/>
<path d="M882.672 350.961C882.672 355.322 879.148 358.855 874.805 358.855C870.454 358.855 866.93 355.322 866.93 350.961C866.93 346.602 870.454 343.068 874.805 343.068C879.148 343.068 882.672 346.602 882.672 350.961Z" fill="white"/>
<path d="M1049.89 334.979C1049.89 339.335 1046.36 342.869 1042.01 342.869C1037.67 342.869 1034.14 339.335 1034.14 334.979C1034.14 330.619 1037.67 327.086 1042.01 327.086C1046.36 327.086 1049.89 330.619 1049.89 334.979Z" fill="white"/>
<path d="M997.261 378.298C997.261 382.653 993.738 386.187 989.394 386.187C985.043 386.187 981.519 382.653 981.519 378.298C981.519 373.938 985.043 370.404 989.394 370.404C993.738 370.404 997.261 373.938 997.261 378.298Z" fill="white"/>
<path d="M976.873 536.461C976.873 540.817 973.349 544.35 968.998 544.35C964.655 544.35 961.13 540.817 961.13 536.461C961.13 532.102 964.655 528.567 968.998 528.567C973.349 528.567 976.873 532.102 976.873 536.461Z" fill="white"/>
<path d="M976.873 536.461C976.873 540.817 973.349 544.35 968.998 544.35C964.655 544.35 961.13 540.817 961.13 536.461C961.13 532.102 964.655 528.567 968.998 528.567C973.349 528.567 976.873 532.102 976.873 536.461Z" fill="white"/>
<path d="M1046.25 471.296C1046.25 475.652 1042.73 479.186 1038.38 479.186C1034.03 479.186 1030.51 475.652 1030.51 471.296C1030.51 466.937 1034.03 463.403 1038.38 463.403C1042.73 463.403 1046.25 466.937 1046.25 471.296Z" fill="white"/>
<path d="M322.943 532.542C322.943 536.902 319.413 540.435 315.068 540.435C310.725 540.435 307.201 536.902 307.201 532.542C307.201 528.183 310.725 524.652 315.068 524.652C319.413 524.652 322.943 528.183 322.943 532.542Z" fill="white"/>
<path d="M260.16 536.572C260.16 540.927 256.636 544.461 252.293 544.461C247.942 544.461 244.418 540.927 244.418 536.572C244.418 532.212 247.942 528.679 252.293 528.679C256.636 528.679 260.16 532.212 260.16 536.572Z" fill="white"/>
<path d="M692.749 418.182C692.749 422.541 689.226 426.075 684.882 426.075C680.539 426.075 677.015 422.541 677.015 418.182C677.015 413.822 680.539 410.288 684.882 410.288C689.226 410.288 692.749 413.822 692.749 418.182Z" fill="white"/>
<path d="M622.949 508.559C622.949 512.918 619.425 516.452 615.082 516.452C610.731 516.452 607.206 512.918 607.206 508.559C607.206 504.199 610.731 500.666 615.082 500.666C619.425 500.666 622.949 504.199 622.949 508.559Z" fill="white"/>
<path d="M622.949 508.559C622.949 512.918 619.425 516.452 615.082 516.452C610.731 516.452 607.206 512.918 607.206 508.559C607.206 504.199 610.731 500.666 615.082 500.666C619.425 500.666 622.949 504.199 622.949 508.559Z" fill="white"/>
<path d="M508.98 518.2C508.98 522.559 505.457 526.093 501.113 526.093C496.762 526.093 493.246 522.559 493.246 518.2C493.246 513.844 496.762 510.311 501.113 510.311C505.457 510.311 508.98 513.844 508.98 518.2Z" fill="white"/>
<path d="M387.869 450.636C387.869 454.995 384.345 458.529 380.001 458.529C375.65 458.529 372.127 454.995 372.127 450.636C372.127 446.28 375.65 442.747 380.001 442.747C384.345 442.747 387.869 446.28 387.869 450.636Z" fill="white"/>
<path d="M478.568 442.613C478.568 446.973 475.044 450.506 470.701 450.506C466.356 450.506 462.833 446.973 462.833 442.613C462.833 438.254 466.356 434.72 470.701 434.72C475.044 434.72 478.568 438.254 478.568 442.613Z" fill="white"/>
<path d="M508.98 518.2C508.98 522.559 505.457 526.093 501.113 526.093C496.762 526.093 493.246 522.559 493.246 518.2C493.246 513.844 496.762 510.311 501.113 510.311C505.457 510.311 508.98 513.844 508.98 518.2Z" fill="white"/>
<path d="M622.949 508.559C622.949 512.918 619.425 516.452 615.082 516.452C610.731 516.452 607.206 512.918 607.206 508.559C607.206 504.199 610.731 500.666 615.082 500.666C619.425 500.666 622.949 504.199 622.949 508.559Z" fill="white"/>
<path d="M859.462 517.281C859.462 521.641 855.938 525.175 851.595 525.175C847.251 525.175 843.727 521.641 843.727 517.281C843.727 512.922 847.251 509.388 851.595 509.388C855.938 509.388 859.462 512.922 859.462 517.281Z" fill="white"/>
<path d="M508.98 518.2C508.98 522.559 505.457 526.093 501.113 526.093C496.762 526.093 493.246 522.559 493.246 518.2C493.246 513.844 496.762 510.311 501.113 510.311C505.457 510.311 508.98 513.844 508.98 518.2Z" fill="white"/>
<path d="M322.943 532.542C322.943 536.902 319.413 540.435 315.068 540.435C310.725 540.435 307.201 536.902 307.201 532.542C307.201 528.183 310.725 524.652 315.068 524.652C319.413 524.652 322.943 528.183 322.943 532.542Z" fill="white"/>
<path d="M810.286 422.419C810.286 426.779 806.762 430.312 802.411 430.312C798.068 430.312 794.544 426.779 794.544 422.419C794.544 418.06 798.068 414.525 802.411 414.525C806.762 414.525 810.286 418.06 810.286 422.419Z" fill="white"/>
<path d="M859.462 517.281C859.462 521.641 855.938 525.175 851.595 525.175C847.251 525.175 843.727 521.641 843.727 517.281C843.727 512.922 847.251 509.388 851.595 509.388C855.938 509.388 859.462 512.922 859.462 517.281Z" fill="white"/>
<path d="M976.873 536.461C976.873 540.817 973.349 544.35 968.998 544.35C964.655 544.35 961.13 540.817 961.13 536.461C961.13 532.102 964.655 528.567 968.998 528.567C973.349 528.567 976.873 532.102 976.873 536.461Z" fill="white"/>
<path d="M820.997 275.959C820.997 280.319 817.473 283.853 813.13 283.853C808.779 283.853 805.255 280.319 805.255 275.959C805.255 271.604 808.779 268.07 813.13 268.07C817.473 268.07 820.997 271.604 820.997 275.959Z" fill="white"/>
<path d="M820.997 275.959C820.997 280.319 817.473 283.853 813.13 283.853C808.779 283.853 805.255 280.319 805.255 275.959C805.255 271.604 808.779 268.07 813.13 268.07C817.473 268.07 820.997 271.604 820.997 275.959Z" fill="white"/>
<path d="M877.035 235.424C877.035 239.783 873.512 243.317 869.168 243.317C864.817 243.317 861.294 239.783 861.294 235.424C861.294 231.068 864.817 227.534 869.168 227.534C873.512 227.534 877.035 231.068 877.035 235.424Z" fill="white"/>
<path d="M1146.46 519.178C1146.46 523.537 1142.93 527.071 1138.59 527.071C1134.25 527.071 1130.72 523.537 1130.72 519.178C1130.72 514.818 1134.25 511.289 1138.59 511.289C1142.93 511.289 1146.46 514.818 1146.46 519.178Z" fill="white"/>
<path d="M1195.71 474.279C1195.71 478.634 1192.18 482.168 1187.83 482.168C1183.49 482.168 1179.97 478.634 1179.97 474.279C1179.97 469.919 1183.49 466.386 1187.83 466.386C1192.18 466.386 1195.71 469.919 1195.71 474.279Z" fill="white"/>
<path d="M1147.44 382.724C1147.44 387.083 1143.92 390.617 1139.57 390.617C1135.22 390.617 1131.7 387.083 1131.7 382.724C1131.7 378.367 1135.22 374.834 1139.57 374.834C1143.92 374.834 1147.44 378.367 1147.44 382.724Z" fill="white"/>
<path d="M1178.05 358.777C1178.05 363.136 1174.53 366.67 1170.19 366.67C1165.84 366.67 1162.31 363.136 1162.31 358.777C1162.31 354.417 1165.84 350.888 1170.19 350.888C1174.53 350.888 1178.05 354.417 1178.05 358.777Z" fill="white"/>
<path d="M882.672 350.961C882.672 355.322 879.148 358.855 874.805 358.855C870.454 358.855 866.93 355.322 866.93 350.961C866.93 346.602 870.454 343.068 874.805 343.068C879.148 343.068 882.672 346.602 882.672 350.961Z" fill="white"/>
<path d="M644.918 341.695C644.918 346.054 641.402 349.587 637.051 349.587C632.707 349.587 629.183 346.054 629.183 341.695C629.183 337.335 632.707 333.801 637.051 333.801C641.402 333.801 644.918 337.335 644.918 341.695Z" fill="white"/>
<path d="M1146.46 519.178C1146.46 523.537 1142.93 527.071 1138.59 527.071C1134.25 527.071 1130.72 523.537 1130.72 519.178C1130.72 514.818 1134.25 511.289 1138.59 511.289C1142.93 511.289 1146.46 514.818 1146.46 519.178Z" fill="white"/>
<path d="M542.939 256.425C542.939 260.785 539.415 264.319 535.071 264.319C530.72 264.319 527.197 260.785 527.197 256.425C527.197 252.065 530.72 248.536 535.071 248.536C539.415 248.536 542.939 252.065 542.939 256.425Z" fill="white"/>
<path d="M490.018 249.947C490.018 254.306 486.494 257.84 482.143 257.84C477.799 257.84 474.276 254.306 474.276 249.947C474.276 245.587 477.799 242.054 482.143 242.054C486.494 242.054 490.018 245.587 490.018 249.947Z" fill="white"/>
<path d="M542.939 256.425C542.939 260.785 539.415 264.319 535.071 264.319C530.72 264.319 527.197 260.785 527.197 256.425C527.197 252.065 530.72 248.536 535.071 248.536C539.415 248.536 542.939 252.065 542.939 256.425Z" fill="white"/>
<path d="M652.933 230.982C652.933 235.342 649.41 238.876 645.059 238.876C640.714 238.876 637.191 235.342 637.191 230.982C637.191 226.627 640.714 223.093 645.059 223.093C649.41 223.093 652.933 226.627 652.933 230.982Z" fill="white"/>
<path d="M710.744 193.299C710.744 197.658 707.221 201.192 702.877 201.192C698.526 201.192 695.003 197.658 695.003 193.299C695.003 188.942 698.526 185.409 702.877 185.409C707.221 185.409 710.744 188.942 710.744 193.299Z" fill="white"/>
<path d="M710.744 193.299C710.744 197.658 707.221 201.192 702.877 201.192C698.526 201.192 695.003 197.658 695.003 193.299C695.003 188.942 698.526 185.409 702.877 185.409C707.221 185.409 710.744 188.942 710.744 193.299Z" fill="white"/>
<path d="M659.131 183.353C659.131 187.712 655.607 191.247 651.264 191.247C646.913 191.247 643.389 187.712 643.389 183.353C643.389 178.993 646.913 175.46 651.264 175.46C655.607 175.46 659.131 178.993 659.131 183.353Z" fill="white"/>
<path d="M723.989 175.893C723.989 180.253 720.466 183.787 716.115 183.787C711.771 183.787 708.248 180.253 708.248 175.893C708.248 171.533 711.771 168 716.115 168C720.466 168 723.989 171.533 723.989 175.893Z" fill="white"/>
<path d="M829.973 177.527C829.973 181.887 826.448 185.42 822.105 185.42C817.754 185.42 814.23 181.887 814.23 177.527C814.23 173.168 817.754 169.633 822.105 169.633C826.448 169.633 829.973 173.168 829.973 177.527Z" fill="white"/>
<path d="M874.953 185.149C874.953 189.51 871.429 193.043 867.085 193.043C862.734 193.043 859.211 189.51 859.211 185.149C859.211 180.79 862.734 177.256 867.085 177.256C871.429 177.256 874.953 180.79 874.953 185.149Z" fill="white"/>
<path d="M1247.79 417.348C1247.79 421.708 1244.26 425.241 1239.91 425.241C1235.57 425.241 1232.05 421.708 1232.05 417.348C1232.05 412.992 1235.57 409.459 1239.91 409.459C1244.26 409.459 1247.79 412.992 1247.79 417.348Z" fill="white"/>
<path d="M1178.05 358.777C1178.05 363.136 1174.53 366.67 1170.19 366.67C1165.84 366.67 1162.31 363.136 1162.31 358.777C1162.31 354.417 1165.84 350.888 1170.19 350.888C1174.53 350.888 1178.05 354.417 1178.05 358.777Z" fill="white"/>
<path d="M1118.12 295.121C1118.12 299.48 1114.6 303.013 1110.25 303.013C1105.9 303.013 1102.38 299.48 1102.38 295.121C1102.38 290.761 1105.9 287.228 1110.25 287.228C1114.6 287.228 1118.12 290.761 1118.12 295.121Z" fill="white"/>
<path d="M1247.79 417.348C1247.79 421.708 1244.26 425.241 1239.91 425.241C1235.57 425.241 1232.05 421.708 1232.05 417.348C1232.05 412.992 1235.57 409.459 1239.91 409.459C1244.26 409.459 1247.79 412.992 1247.79 417.348Z" fill="white"/>
<path d="M1295.85 506.303C1295.85 510.663 1292.32 514.193 1287.98 514.193C1283.63 514.193 1280.11 510.663 1280.11 506.303C1280.11 501.944 1283.63 498.41 1287.98 498.41C1292.32 498.41 1295.85 501.944 1295.85 506.303Z" fill="white"/>
<path d="M1339.4 577.001C1339.4 581.36 1335.88 584.894 1331.53 584.894C1327.18 584.894 1323.66 581.36 1323.66 577.001C1323.66 572.641 1327.18 569.108 1331.53 569.108C1335.88 569.108 1339.4 572.641 1339.4 577.001Z" fill="white"/>
<path d="M417.75 286.95C417.75 291.309 414.226 294.843 409.875 294.843C405.531 294.843 402.008 291.309 402.008 286.95C402.008 282.59 405.531 279.056 409.875 279.056C414.226 279.056 417.75 282.59 417.75 286.95Z" fill="white"/>
<path d="M359.406 325.545C359.406 329.905 355.882 333.438 351.531 333.438C347.188 333.438 343.664 329.905 343.664 325.545C343.664 321.189 347.188 317.655 351.531 317.655C355.882 317.655 359.406 321.189 359.406 325.545Z" fill="white"/>
<path d="M282.536 407.395C282.536 411.755 279.012 415.285 274.661 415.285C270.317 415.285 266.794 411.755 266.794 407.395C266.794 403.036 270.317 399.502 274.661 399.502C279.012 399.502 282.536 403.036 282.536 407.395Z" fill="white"/>
<path d="M399.126 371.748C399.126 376.108 395.603 379.641 391.252 379.641C386.908 379.641 383.385 376.108 383.385 371.748C383.385 367.389 386.908 363.855 391.252 363.855C395.603 363.855 399.126 367.389 399.126 371.748Z" fill="white"/>
<path d="M349.53 371.467C349.53 375.823 346.006 379.357 341.663 379.357C337.318 379.357 333.795 375.823 333.795 371.467C333.795 367.108 337.318 363.574 341.663 363.574C346.006 363.574 349.53 367.108 349.53 371.467Z" fill="white"/>
<path d="M490.018 249.947C490.018 254.306 486.494 257.84 482.143 257.84C477.799 257.84 474.276 254.306 474.276 249.947C474.276 245.587 477.799 242.054 482.143 242.054C486.494 242.054 490.018 245.587 490.018 249.947Z" fill="white"/>
<path d="M394.2 307.07C394.2 311.429 390.675 314.96 386.325 314.96C381.981 314.96 378.457 311.429 378.457 307.07C378.457 302.71 381.981 299.177 386.325 299.177C390.675 299.177 394.2 302.71 394.2 307.07Z" fill="white"/>
<path d="M359.406 325.545C359.406 329.905 355.882 333.438 351.531 333.438C347.188 333.438 343.664 329.905 343.664 325.545C343.664 321.189 347.188 317.655 351.531 317.655C355.882 317.655 359.406 321.189 359.406 325.545Z" fill="white"/>
<path d="M349.522 371.464C349.522 375.823 345.998 379.357 341.655 379.357C337.304 379.357 333.78 375.823 333.78 371.464C333.78 367.108 337.304 363.574 341.655 363.574C345.998 363.574 349.522 367.108 349.522 371.464Z" fill="white"/>
<path d="M394.2 307.07C394.2 311.429 390.675 314.96 386.325 314.96C381.981 314.96 378.457 311.429 378.457 307.07C378.457 302.71 381.981 299.177 386.325 299.177C390.675 299.177 394.2 302.71 394.2 307.07Z" fill="white"/>
<path d="M970.431 210.788C970.431 215.148 966.907 218.682 962.564 218.682C958.213 218.682 954.689 215.148 954.689 210.788C954.689 206.428 958.213 202.895 962.564 202.895C966.907 202.895 970.431 206.428 970.431 210.788Z" fill="white"/>
<path d="M1026.19 249.555C1026.19 253.914 1022.67 257.448 1018.32 257.448C1013.97 257.448 1010.45 253.914 1010.45 249.555C1010.45 245.195 1013.97 241.662 1018.32 241.662C1022.67 241.662 1026.19 245.195 1026.19 249.555Z" fill="white"/>
<path d="M1118.12 295.121C1118.12 299.48 1114.6 303.013 1110.25 303.013C1105.9 303.013 1102.38 299.48 1102.38 295.121C1102.38 290.761 1105.9 287.228 1110.25 287.228C1114.6 287.228 1118.12 290.761 1118.12 295.121Z" fill="white"/>
<path d="M1026.19 249.555C1026.19 253.914 1022.67 257.448 1018.32 257.448C1013.97 257.448 1010.45 253.914 1010.45 249.555C1010.45 245.195 1013.97 241.662 1018.32 241.662C1022.67 241.662 1026.19 245.195 1026.19 249.555Z" fill="white"/>
<path d="M987.628 264.944C987.628 269.3 984.104 272.833 979.761 272.833C975.41 272.833 971.886 269.3 971.886 264.944C971.886 260.585 975.41 257.051 979.761 257.051C984.104 257.051 987.628 260.585 987.628 264.944Z" fill="white"/>
<path d="M882.672 350.961C882.672 355.322 879.148 358.855 874.805 358.855C870.454 358.855 866.93 355.322 866.93 350.961C866.93 346.602 870.454 343.068 874.805 343.068C879.148 343.068 882.672 346.602 882.672 350.961Z" fill="white"/>
<path d="M997.261 378.298C997.261 382.653 993.738 386.187 989.394 386.187C985.043 386.187 981.519 382.653 981.519 378.298C981.519 373.938 985.043 370.404 989.394 370.404C993.738 370.404 997.261 373.938 997.261 378.298Z" fill="white"/>
<path d="M1146.46 519.178C1146.46 523.537 1142.93 527.071 1138.59 527.071C1134.25 527.071 1130.72 523.537 1130.72 519.178C1130.72 514.818 1134.25 511.289 1138.59 511.289C1142.93 511.289 1146.46 514.818 1146.46 519.178Z" fill="white"/>
<path d="M1046.25 471.296C1046.25 475.652 1042.73 479.186 1038.38 479.186C1034.03 479.186 1030.51 475.652 1030.51 471.296C1030.51 466.937 1034.03 463.403 1038.38 463.403C1042.73 463.403 1046.25 466.937 1046.25 471.296Z" fill="white"/>
<path d="M1046.25 471.296C1046.25 475.652 1042.73 479.186 1038.38 479.186C1034.03 479.186 1030.51 475.652 1030.51 471.296C1030.51 466.937 1034.03 463.403 1038.38 463.403C1042.73 463.403 1046.25 466.937 1046.25 471.296Z" fill="white"/>
<path d="M997.261 378.298C997.261 382.653 993.738 386.187 989.394 386.187C985.043 386.187 981.519 382.653 981.519 378.298C981.519 373.938 985.043 370.404 989.394 370.404C993.738 370.404 997.261 373.938 997.261 378.298Z" fill="white"/>
<path d="M1046.25 471.296C1046.25 475.652 1042.73 479.186 1038.38 479.186C1034.03 479.186 1030.51 475.652 1030.51 471.296C1030.51 466.937 1034.03 463.403 1038.38 463.403C1042.73 463.403 1046.25 466.937 1046.25 471.296Z" fill="white"/>
<path d="M1046.85 472.441C1046.85 476.801 1043.33 480.334 1038.98 480.334C1034.63 480.334 1031.11 476.801 1031.11 472.441C1031.11 468.082 1034.63 464.548 1038.98 464.548C1043.33 464.548 1046.85 468.082 1046.85 472.441Z" fill="white"/>
<path d="M1046.25 471.296C1046.25 475.652 1042.73 479.186 1038.38 479.186C1034.03 479.186 1030.51 475.652 1030.51 471.296C1030.51 466.937 1034.03 463.403 1038.38 463.403C1042.73 463.403 1046.25 466.937 1046.25 471.296Z" fill="white"/>
<path d="M192.694 566.278C192.694 570.633 189.17 574.168 184.819 574.168C180.476 574.168 176.951 570.633 176.951 566.278C176.951 561.918 180.476 558.385 184.819 558.385C189.17 558.385 192.694 561.918 192.694 566.278Z" fill="white"/>
<path d="M399.932 372.819C399.932 377.179 396.408 380.712 392.064 380.712C387.713 380.712 384.19 377.179 384.19 372.819C384.19 368.46 387.713 364.926 392.064 364.926C396.408 364.926 399.932 368.46 399.932 372.819Z" fill="white"/>
<path d="M387.869 450.636C387.869 454.995 384.345 458.529 380.001 458.529C375.65 458.529 372.127 454.995 372.127 450.636C372.127 446.28 375.65 442.747 380.001 442.747C384.345 442.747 387.869 446.28 387.869 450.636Z" fill="white"/>
<path d="M322.943 532.542C322.943 536.902 319.413 540.435 315.068 540.435C310.725 540.435 307.201 536.902 307.201 532.542C307.201 528.183 310.725 524.652 315.068 524.652C319.413 524.652 322.943 528.183 322.943 532.542Z" fill="white"/>
<path d="M706.741 272.815C706.741 277.175 703.217 280.708 698.873 280.708C694.53 280.708 691.006 277.175 691.006 272.815C691.006 268.456 694.53 264.922 698.873 264.922C703.217 264.922 706.741 268.456 706.741 272.815Z" fill="white"/>
<path d="M820.997 275.959C820.997 280.319 817.473 283.853 813.13 283.853C808.779 283.853 805.255 280.319 805.255 275.959C805.255 271.604 808.779 268.07 813.13 268.07C817.473 268.07 820.997 271.604 820.997 275.959Z" fill="white"/>
<path d="M241.005 472.056C241.005 476.416 237.482 479.95 233.138 479.95C228.787 479.95 225.264 476.416 225.264 472.056C225.264 467.697 228.787 464.163 233.138 464.163C237.482 464.163 241.005 467.697 241.005 472.056Z" fill="white"/>
<path d="M274.506 455.507C274.506 459.866 270.982 463.4 266.631 463.4C262.288 463.4 258.764 459.866 258.764 455.507C258.764 451.147 262.288 447.614 266.631 447.614C270.982 447.614 274.506 451.147 274.506 455.507Z" fill="white"/>
<path d="M349.522 371.464C349.522 375.823 345.998 379.357 341.655 379.357C337.304 379.357 333.78 375.823 333.78 371.464C333.78 367.108 337.304 363.574 341.655 363.574C345.998 363.574 349.522 367.108 349.522 371.464Z" fill="white"/>
<path d="M260.16 536.572C260.16 540.927 256.636 544.461 252.293 544.461C247.942 544.461 244.418 540.927 244.418 536.572C244.418 532.212 247.942 528.679 252.293 528.679C256.636 528.679 260.16 532.212 260.16 536.572Z" fill="white"/>
<path d="M274.506 455.507C274.506 459.866 270.982 463.4 266.631 463.4C262.288 463.4 258.764 459.866 258.764 455.507C258.764 451.147 262.288 447.614 266.631 447.614C270.982 447.614 274.506 451.147 274.506 455.507Z" fill="white"/>
<path d="M1273.2 539.917C1273.2 544.276 1269.68 547.81 1265.33 547.81C1260.98 547.81 1257.46 544.276 1257.46 539.917C1257.46 535.557 1260.98 532.027 1265.33 532.027C1269.68 532.027 1273.2 535.557 1273.2 539.917Z" fill="white"/>
<path d="M987.628 264.944C987.628 269.3 984.104 272.833 979.761 272.833C975.41 272.833 971.886 269.3 971.886 264.944C971.886 260.585 975.41 257.051 979.761 257.051C984.104 257.051 987.628 260.585 987.628 264.944Z" fill="white"/>
<path d="M1049.89 334.979C1049.89 339.335 1046.36 342.869 1042.01 342.869C1037.67 342.869 1034.14 339.335 1034.14 334.979C1034.14 330.619 1037.67 327.086 1042.01 327.086C1046.36 327.086 1049.89 330.619 1049.89 334.979Z" fill="white"/>
<path d="M1147.44 382.724C1147.44 387.083 1143.92 390.617 1139.57 390.617C1135.22 390.617 1131.7 387.083 1131.7 382.724C1131.7 378.367 1135.22 374.834 1139.57 374.834C1143.92 374.834 1147.44 378.367 1147.44 382.724Z" fill="white"/>
<path d="M1273.2 539.917C1273.2 544.276 1269.68 547.81 1265.33 547.81C1260.98 547.81 1257.46 544.276 1257.46 539.917C1257.46 535.557 1260.98 532.027 1265.33 532.027C1269.68 532.027 1273.2 535.557 1273.2 539.917Z" fill="white"/>
<path d="M1195.71 474.279C1195.71 478.634 1192.18 482.168 1187.83 482.168C1183.49 482.168 1179.97 478.634 1179.97 474.279C1179.97 469.919 1183.49 466.386 1187.83 466.386C1192.18 466.386 1195.71 469.919 1195.71 474.279Z" fill="white"/>
<path d="M1147.44 382.724C1147.44 387.083 1143.92 390.617 1139.57 390.617C1135.22 390.617 1131.7 387.083 1131.7 382.724C1131.7 378.367 1135.22 374.834 1139.57 374.834C1143.92 374.834 1147.44 378.367 1147.44 382.724Z" fill="white"/>
<path d="M710.744 193.299C710.744 197.658 707.221 201.192 702.877 201.192C698.526 201.192 695.003 197.658 695.003 193.299C695.003 188.942 698.526 185.409 702.877 185.409C707.221 185.409 710.744 188.942 710.744 193.299Z" fill="white"/>
<path d="M821.056 194.917C821.056 199.277 817.532 202.81 813.189 202.81C808.845 202.81 805.322 199.277 805.322 194.917C805.322 190.561 808.845 187.027 813.189 187.027C817.532 187.027 821.056 190.561 821.056 194.917Z" fill="white"/>
<path d="M874.953 185.149C874.953 189.51 871.429 193.043 867.085 193.043C862.734 193.043 859.211 189.51 859.211 185.149C859.211 180.79 862.734 177.256 867.085 177.256C871.429 177.256 874.953 180.79 874.953 185.149Z" fill="white"/>
<path d="M987.628 264.944C987.628 269.3 984.104 272.833 979.761 272.833C975.41 272.833 971.886 269.3 971.886 264.944C971.886 260.585 975.41 257.051 979.761 257.051C984.104 257.051 987.628 260.585 987.628 264.944Z" fill="white"/>
<path d="M877.035 235.424C877.035 239.783 873.512 243.317 869.168 243.317C864.817 243.317 861.294 239.783 861.294 235.424C861.294 231.068 864.817 227.534 869.168 227.534C873.512 227.534 877.035 231.068 877.035 235.424Z" fill="white"/>
<path d="M821.056 194.917C821.056 199.277 817.532 202.81 813.189 202.81C808.845 202.81 805.322 199.277 805.322 194.917C805.322 190.561 808.845 187.027 813.189 187.027C817.532 187.027 821.056 190.561 821.056 194.917Z" fill="white"/>
<path d="M490.018 249.947C490.018 254.306 486.494 257.84 482.143 257.84C477.799 257.84 474.276 254.306 474.276 249.947C474.276 245.587 477.799 242.054 482.143 242.054C486.494 242.054 490.018 245.587 490.018 249.947Z" fill="white"/>
<path d="M548.302 212.918C548.302 217.274 544.778 220.808 540.427 220.808C536.084 220.808 532.56 217.274 532.56 212.918C532.56 208.559 536.084 205.025 540.427 205.025C544.778 205.025 548.302 208.559 548.302 212.918Z" fill="white"/>
<path d="M510.199 231.812C510.199 236.172 506.675 239.705 502.324 239.705C497.981 239.705 494.457 236.172 494.457 231.812C494.457 227.453 497.981 223.923 502.324 223.923C506.675 223.923 510.199 227.453 510.199 231.812Z" fill="white"/>
<path d="M417.75 286.95C417.75 291.309 414.226 294.843 409.875 294.843C405.531 294.843 402.008 291.309 402.008 286.95C402.008 282.59 405.531 279.056 409.875 279.056C414.226 279.056 417.75 282.59 417.75 286.95Z" fill="white"/>
<path d="M1243.48 402.655C1243.48 407.014 1239.96 410.544 1235.61 410.544C1231.26 410.544 1227.74 407.014 1227.74 402.655C1227.74 398.295 1231.26 394.762 1235.61 394.762C1239.96 394.762 1243.48 398.295 1243.48 402.655Z" fill="white"/>
<path d="M1285.25 473.352C1285.25 477.708 1281.72 481.242 1277.37 481.242C1273.03 481.242 1269.51 477.708 1269.51 473.352C1269.51 468.992 1273.03 465.459 1277.37 465.459C1281.72 465.459 1285.25 468.992 1285.25 473.352Z" fill="white"/>
<path d="M1172.59 332.416C1172.59 336.775 1169.07 340.309 1164.73 340.309C1160.38 340.309 1156.85 336.775 1156.85 332.416C1156.85 328.056 1160.38 324.523 1164.73 324.523C1169.07 324.523 1172.59 328.056 1172.59 332.416Z" fill="white"/>
<path d="M1116.7 283.419C1116.7 287.779 1113.17 291.313 1108.82 291.313C1104.48 291.313 1100.95 287.779 1100.95 283.419C1100.95 279.06 1104.48 275.526 1108.82 275.526C1113.17 275.526 1116.7 279.06 1116.7 283.419Z" fill="white"/>
<path d="M1027.05 232.29C1027.05 236.646 1023.52 240.179 1019.17 240.179C1014.83 240.179 1011.3 236.646 1011.3 232.29C1011.3 227.93 1014.83 224.397 1019.17 224.397C1023.52 224.397 1027.05 227.93 1027.05 232.29Z" fill="white"/>
<path d="M542.939 256.425C542.939 260.785 539.415 264.319 535.071 264.319C530.72 264.319 527.197 260.785 527.197 256.425C527.197 252.065 530.72 248.536 535.071 248.536C539.415 248.536 542.939 252.065 542.939 256.425Z" fill="white"/>
<path d="M496.164 314.726C496.164 319.082 492.64 322.615 488.296 322.615C483.945 322.615 480.422 319.082 480.422 314.726C480.422 310.366 483.945 306.833 488.296 306.833C492.64 306.833 496.164 310.366 496.164 314.726Z" fill="white"/>
<path d="M400.095 371.752C400.095 376.112 396.578 379.645 392.227 379.645C387.883 379.645 384.36 376.112 384.36 371.752C384.36 367.396 387.883 363.862 392.227 363.862C396.578 363.862 400.095 367.396 400.095 371.752Z" fill="white"/>
<path d="M647.105 341.483C647.105 345.842 643.581 349.377 639.237 349.377C634.886 349.377 631.363 345.842 631.363 341.483C631.363 337.127 634.886 333.594 639.237 333.594C643.581 333.594 647.105 337.127 647.105 341.483Z" fill="white"/>
<path d="M546.019 357.17C546.019 361.529 542.496 365.063 538.152 365.063C533.808 365.063 530.285 361.529 530.285 357.17C530.285 352.81 533.808 349.277 538.152 349.277C542.496 349.277 546.019 352.81 546.019 357.17Z" fill="white"/>
<path d="M478.568 442.613C478.568 446.973 475.044 450.506 470.701 450.506C466.356 450.506 462.833 446.973 462.833 442.613C462.833 438.254 466.356 434.72 470.701 434.72C475.044 434.72 478.568 438.254 478.568 442.613Z" fill="white"/>
<path d="M546.019 357.17C546.019 361.529 542.496 365.063 538.152 365.063C533.808 365.063 530.285 361.529 530.285 357.17C530.285 352.81 533.808 349.277 538.152 349.277C542.496 349.277 546.019 352.81 546.019 357.17Z" fill="white"/>
<path d="M510.199 231.812C510.199 236.172 506.675 239.705 502.324 239.705C497.981 239.705 494.457 236.172 494.457 231.812C494.457 227.453 497.981 223.923 502.324 223.923C506.675 223.923 510.199 227.453 510.199 231.812Z" fill="white"/>
<path d="M509.461 237.59C509.461 241.95 505.937 245.484 501.593 245.484C497.249 245.484 493.718 241.95 493.718 237.59C493.718 233.231 497.249 229.697 501.593 229.697C505.937 229.697 509.461 233.231 509.461 237.59Z" fill="white"/>
<path d="M1118.12 295.121C1118.12 299.48 1114.6 303.013 1110.25 303.013C1105.9 303.013 1102.38 299.48 1102.38 295.121C1102.38 290.761 1105.9 287.228 1110.25 287.228C1114.6 287.228 1118.12 290.761 1118.12 295.121Z" fill="white"/>
<path d="M1116.7 283.419C1116.7 287.779 1113.17 291.313 1108.82 291.313C1104.48 291.313 1100.95 287.779 1100.95 283.419C1100.95 279.06 1104.48 275.526 1108.82 275.526C1113.17 275.526 1116.7 279.06 1116.7 283.419Z" fill="white"/>
<path d="M496.164 314.726C496.164 319.082 492.64 322.615 488.296 322.615C483.945 322.615 480.422 319.082 480.422 314.726C480.422 310.366 483.945 306.833 488.296 306.833C492.64 306.833 496.164 310.366 496.164 314.726Z" fill="white"/>
<path d="M546.019 357.17C546.019 361.529 542.496 365.063 538.152 365.063C533.808 365.063 530.285 361.529 530.285 357.17C530.285 352.81 533.808 349.277 538.152 349.277C542.496 349.277 546.019 352.81 546.019 357.17Z" fill="white"/>
<path d="M192.694 566.278C192.694 570.633 189.17 574.168 184.819 574.168C180.476 574.168 176.951 570.633 176.951 566.278C176.951 561.918 180.476 558.385 184.819 558.385C189.17 558.385 192.694 561.918 192.694 566.278Z" fill="white"/>
<path d="M1243.48 402.655C1243.48 407.014 1239.96 410.544 1235.61 410.544C1231.26 410.544 1227.74 407.014 1227.74 402.655C1227.74 398.295 1231.26 394.762 1235.61 394.762C1239.96 394.762 1243.48 398.295 1243.48 402.655Z" fill="white"/>
<path d="M1172.59 332.416C1172.59 336.775 1169.07 340.309 1164.73 340.309C1160.38 340.309 1156.85 336.775 1156.85 332.416C1156.85 328.056 1160.38 324.523 1164.73 324.523C1169.07 324.523 1172.59 328.056 1172.59 332.416Z" fill="white"/>
<path d="M723.989 175.893C723.989 180.253 720.466 183.787 716.115 183.787C711.771 183.787 708.248 180.253 708.248 175.893C708.248 171.533 711.771 168 716.115 168C720.466 168 723.989 171.533 723.989 175.893Z" fill="white"/>
<path d="M659.131 183.353C659.131 187.712 655.607 191.247 651.264 191.247C646.913 191.247 643.389 187.712 643.389 183.353C643.389 178.993 646.913 175.46 651.264 175.46C655.607 175.46 659.131 178.993 659.131 183.353Z" fill="white"/>
<path d="M1027.05 232.29C1027.05 236.646 1023.52 240.179 1019.17 240.179C1014.83 240.179 1011.3 236.646 1011.3 232.29C1011.3 227.93 1014.83 224.397 1019.17 224.397C1023.52 224.397 1027.05 227.93 1027.05 232.29Z" fill="white"/>
<path d="M970.431 210.788C970.431 215.148 966.907 218.682 962.564 218.682C958.213 218.682 954.689 215.148 954.689 210.788C954.689 206.428 958.213 202.895 962.564 202.895C966.907 202.895 970.431 206.428 970.431 210.788Z" fill="white"/>
<path d="M970.431 210.788C970.431 215.148 966.907 218.682 962.564 218.682C958.213 218.682 954.689 215.148 954.689 210.788C954.689 206.428 958.213 202.895 962.564 202.895C966.907 202.895 970.431 206.428 970.431 210.788Z" fill="white"/>
<path d="M874.953 185.149C874.953 189.51 871.429 193.043 867.085 193.043C862.734 193.043 859.211 189.51 859.211 185.149C859.211 180.79 862.734 177.256 867.085 177.256C871.429 177.256 874.953 180.79 874.953 185.149Z" fill="white"/>
<path d="M1243.48 402.655C1243.48 407.014 1239.96 410.544 1235.61 410.544C1231.26 410.544 1227.74 407.014 1227.74 402.655C1227.74 398.295 1231.26 394.762 1235.61 394.762C1239.96 394.762 1243.48 398.295 1243.48 402.655Z" fill="white"/>
<path d="M1247.79 417.348C1247.79 421.708 1244.26 425.241 1239.91 425.241C1235.57 425.241 1232.05 421.708 1232.05 417.348C1232.05 412.992 1235.57 409.459 1239.91 409.459C1244.26 409.459 1247.79 412.992 1247.79 417.348Z" fill="white"/>
<path d="M1339.4 577.001C1339.4 581.36 1335.88 584.894 1331.53 584.894C1327.18 584.894 1323.66 581.36 1323.66 577.001C1323.66 572.641 1327.18 569.108 1331.53 569.108C1335.88 569.108 1339.4 572.641 1339.4 577.001Z" fill="white"/>
<path d="M192.694 566.278C192.694 570.633 189.17 574.168 184.819 574.168C180.476 574.168 176.951 570.633 176.951 566.278C176.951 561.918 180.476 558.385 184.819 558.385C189.17 558.385 192.694 561.918 192.694 566.278Z" fill="white"/>
<path d="M241.005 472.056C241.005 476.416 237.482 479.95 233.138 479.95C228.787 479.95 225.264 476.416 225.264 472.056C225.264 467.697 228.787 464.163 233.138 464.163C237.482 464.163 241.005 467.697 241.005 472.056Z" fill="white"/>
<path d="M241.005 472.056C241.005 476.416 237.482 479.95 233.138 479.95C228.787 479.95 225.264 476.416 225.264 472.056C225.264 467.697 228.787 464.163 233.138 464.163C237.482 464.163 241.005 467.697 241.005 472.056Z" fill="white"/>
<path d="M282.536 407.395C282.536 411.755 279.012 415.285 274.661 415.285C270.317 415.285 266.794 411.755 266.794 407.395C266.794 403.036 270.317 399.502 274.661 399.502C279.012 399.502 282.536 403.036 282.536 407.395Z" fill="white"/>
<path d="M659.131 183.353C659.131 187.712 655.607 191.247 651.264 191.247C646.913 191.247 643.389 187.712 643.389 183.353C643.389 178.993 646.913 175.46 651.264 175.46C655.607 175.46 659.131 178.993 659.131 183.353Z" fill="white"/>
<path d="M548.302 212.918C548.302 217.274 544.778 220.808 540.427 220.808C536.084 220.808 532.56 217.274 532.56 212.918C532.56 208.559 536.084 205.025 540.427 205.025C544.778 205.025 548.302 208.559 548.302 212.918Z" fill="white"/>
<path d="M548.302 212.918C548.302 217.274 544.778 220.808 540.427 220.808C536.084 220.808 532.56 217.274 532.56 212.918C532.56 208.559 536.084 205.025 540.427 205.025C544.778 205.025 548.302 208.559 548.302 212.918Z" fill="white"/>
<path d="M510.199 231.812C510.199 236.172 506.675 239.705 502.324 239.705C497.981 239.705 494.457 236.172 494.457 231.812C494.457 227.453 497.981 223.923 502.324 223.923C506.675 223.923 510.199 227.453 510.199 231.812Z" fill="white"/>
<path d="M1339.4 577.001C1339.4 581.36 1335.88 584.894 1331.53 584.894C1327.18 584.894 1323.66 581.36 1323.66 577.001C1323.66 572.641 1327.18 569.108 1331.53 569.108C1335.88 569.108 1339.4 572.641 1339.4 577.001Z" fill="white"/>
<path d="M1333.13 558.911C1333.13 563.27 1329.61 566.804 1325.26 566.804C1320.91 566.804 1317.39 563.27 1317.39 558.911C1317.39 554.551 1320.91 551.018 1325.26 551.018C1329.61 551.018 1333.13 554.551 1333.13 558.911Z" fill="white"/>
<g filter="url(#filter0_f_257_256)">
<path fill-rule="evenodd" clip-rule="evenodd" d="M1321 582.5C1314.29 625.846 1005.02 546.095 930 571.145C857.751 595.27 893.55 568.359 798.484 571.145C681.801 574.564 289.027 606.508 211.5 563C134.759 519.933 175.735 561.179 309.5 438C330.439 399.964 368.05 296.935 426.5 269C501.445 233.182 703.755 260.082 822 269C940.383 277.928 993.638 224.41 1067 269C1129.47 306.969 1327.73 538.989 1321 582.5Z" fill="url(#paint0_linear_257_256)" fill-opacity="0.5"/>
</g>
<defs>
<filter id="filter0_f_257_256" x="-76.9325" y="0.907715" width="1648.1" height="844.754" filterUnits="userSpaceOnUse" color-interpolation-filters="sRGB">
<feFlood flood-opacity="0" result="BackgroundImageFix"/>
<feBlend mode="normal" in="SourceGraphic" in2="BackgroundImageFix" result="shape"/>
<feGaussianBlur stdDeviation="125" result="effect1_foregroundBlur_257_256"/>
</filter>
<linearGradient id="paint0_linear_257_256" x1="1224.32" y1="413.997" x2="425.274" y2="345.649" gradientUnits="userSpaceOnUse">
<stop stop-color="#FF97D6"/>
<stop offset="1" stop-color="#8495FF"/>
</linearGradient>
</defs>
</svg>
