<svg xmlns="http://www.w3.org/2000/svg" width="40" height="40" viewBox="0 0 40 40" fill="none">
  <rect width="40" height="40" rx="20" fill="#00A7E1"/>
  <path d="M15.38 9H24.62C28.14 9 31 11.86 31 15.38V24.62C31 26.3121 30.3278 27.9349 29.1313 29.1313C27.9349 30.3278 26.3121 31 24.62 31H15.38C11.86 31 9 28.14 9 24.62V15.38C9 13.6879 9.67218 12.0651 10.8687 10.8687C12.0651 9.67218 13.6879 9 15.38 9ZM15.16 11.2C14.1097 11.2 13.1025 11.6172 12.3599 12.3599C11.6172 13.1025 11.2 14.1097 11.2 15.16V24.84C11.2 27.029 12.971 28.8 15.16 28.8H24.84C25.8903 28.8 26.8975 28.3828 27.6401 27.6401C28.3828 26.8975 28.8 25.8903 28.8 24.84V15.16C28.8 12.971 27.029 11.2 24.84 11.2H15.16ZM25.775 12.85C26.1397 12.85 26.4894 12.9949 26.7473 13.2527C27.0051 13.5106 27.15 13.8603 27.15 14.225C27.15 14.5897 27.0051 14.9394 26.7473 15.1973C26.4894 15.4551 26.1397 15.6 25.775 15.6C25.4103 15.6 25.0606 15.4551 24.8027 15.1973C24.5449 14.9394 24.4 14.5897 24.4 14.225C24.4 13.8603 24.5449 13.5106 24.8027 13.2527C25.0606 12.9949 25.4103 12.85 25.775 12.85ZM20 14.5C21.4587 14.5 22.8576 15.0795 23.8891 16.1109C24.9205 17.1424 25.5 18.5413 25.5 20C25.5 21.4587 24.9205 22.8576 23.8891 23.8891C22.8576 24.9205 21.4587 25.5 20 25.5C18.5413 25.5 17.1424 24.9205 16.1109 23.8891C15.0795 22.8576 14.5 21.4587 14.5 20C14.5 18.5413 15.0795 17.1424 16.1109 16.1109C17.1424 15.0795 18.5413 14.5 20 14.5ZM20 16.7C19.1248 16.7 18.2854 17.0477 17.6665 17.6665C17.0477 18.2854 16.7 19.1248 16.7 20C16.7 20.8752 17.0477 21.7146 17.6665 22.3335C18.2854 22.9523 19.1248 23.3 20 23.3C20.8752 23.3 21.7146 22.9523 22.3335 22.3335C22.9523 21.7146 23.3 20.8752 23.3 20C23.3 19.1248 22.9523 18.2854 22.3335 17.6665C21.7146 17.0477 20.8752 16.7 20 16.7Z" fill="white"/>
</svg>