<svg xmlns="http://www.w3.org/2000/svg" width="40" height="40" viewBox="0 0 40 40" fill="none">
  <rect width="40" height="40" rx="20" fill="#00A7E1"/>
  <path d="M25.5 21.2429V25.3096H23.1427V21.5146C23.1427 20.562 22.8017 19.9119 21.9481 19.9119C21.2969 19.9119 20.9086 20.3497 20.7381 20.7743C20.6765 20.9261 20.66 21.1373 20.66 21.3485V25.3096H18.3016C18.3016 25.3096 18.3335 18.8834 18.3016 18.2179H20.66V19.2222L20.6446 19.2453H20.66V19.2222C20.9735 18.7382 21.5323 18.0507 22.7852 18.0507C24.3362 18.0507 25.5 19.0649 25.5 21.2429ZM15.8343 14.798C15.028 14.798 14.5 15.3282 14.5 16.0234C14.5 16.7054 15.0126 17.2499 15.8035 17.2499H15.8189C16.6417 17.2499 17.1532 16.7043 17.1532 16.0234C17.1378 15.3282 16.6417 14.798 15.8343 14.798ZM14.6397 25.3096H16.9981V18.2179H14.6397V25.3096Z" fill="white"/>
  <path d="M20 28.8C22.3339 28.8 24.5722 27.8729 26.2225 26.2225C27.8729 24.5722 28.8 22.3339 28.8 20C28.8 17.6661 27.8729 15.4278 26.2225 13.7775C24.5722 12.1271 22.3339 11.2 20 11.2C17.6661 11.2 15.4278 12.1271 13.7775 13.7775C12.1271 15.4278 11.2 17.6661 11.2 20C11.2 22.3339 12.1271 24.5722 13.7775 26.2225C15.4278 27.8729 17.6661 28.8 20 28.8ZM20 31C13.9247 31 9 26.0753 9 20C9 13.9247 13.9247 9 20 9C26.0753 9 31 13.9247 31 20C31 26.0753 26.0753 31 20 31Z" fill="white"/>
</svg>