<svg width="23" height="22" viewBox="0 0 23 22" fill="none" xmlns="http://www.w3.org/2000/svg">
<g id="Group">
<path id="Vector" d="M17 12.2429V16.3096H14.6427V12.5146C14.6427 11.562 14.3017 10.9119 13.4481 10.9119C12.7969 10.9119 12.4086 11.3497 12.2381 11.7743C12.1765 11.9261 12.16 12.1373 12.16 12.3485V16.3096H9.8016C9.8016 16.3096 9.8335 9.88337 9.8016 9.21787H12.16V10.2222L12.1446 10.2453H12.16V10.2222C12.4735 9.73817 13.0323 9.05067 14.2852 9.05067C15.8362 9.05067 17 10.0649 17 12.2429ZM7.3343 5.79797C6.528 5.79797 6 6.32817 6 7.02337C6 7.70537 6.5126 8.24987 7.3035 8.24987H7.3189C8.1417 8.24987 8.6532 7.70427 8.6532 7.02337C8.6378 6.32817 8.1417 5.79797 7.3343 5.79797ZM6.1397 16.3096H8.4981V9.21787H6.1397V16.3096Z" fill="white"/>
<path id="Vector_2" d="M11.5 19.8C13.8339 19.8 16.0722 18.8729 17.7225 17.2225C19.3729 15.5722 20.3 13.3339 20.3 11C20.3 8.66609 19.3729 6.42778 17.7225 4.77746C16.0722 3.12714 13.8339 2.2 11.5 2.2C9.16609 2.2 6.92778 3.12714 5.27746 4.77746C3.62714 6.42778 2.7 8.66609 2.7 11C2.7 13.3339 3.62714 15.5722 5.27746 17.2225C6.92778 18.8729 9.16609 19.8 11.5 19.8ZM11.5 22C5.4247 22 0.5 17.0753 0.5 11C0.5 4.9247 5.4247 0 11.5 0C17.5753 0 22.5 4.9247 22.5 11C22.5 17.0753 17.5753 22 11.5 22Z" fill="white"/>
</g>
</svg>
