<svg xmlns="http://www.w3.org/2000/svg" width="30" height="30" viewBox="0 0 30 30" fill="none">
  <path d="M27.4625 22.9124C27.4625 23.3624 27.3625 23.8249 27.15 24.2749C26.9375 24.7249 26.6625 25.1499 26.3 25.5499C25.6875 26.2249 25.0125 26.7124 24.25 27.0249C23.5 27.3374 22.6875 27.4999 21.8125 27.4999C20.5375 27.4999 19.175 27.1999 17.7375 26.5874C16.3 25.9749 14.8625 25.1499 13.4375 24.1124C12 23.0624 10.6375 21.8999 9.3375 20.6124C8.05 19.3124 6.8875 17.9499 5.85 16.5249C4.825 15.0999 4 13.6749 3.4 12.2624C2.8 10.8374 2.5 9.47488 2.5 8.17488C2.5 7.32488 2.65 6.51238 2.95 5.76238C3.25 4.99988 3.725 4.29988 4.3875 3.67488C5.1875 2.88738 6.0625 2.49988 6.9875 2.49988C7.3375 2.49988 7.6875 2.57488 8 2.72488C8.325 2.87488 8.6125 3.09988 8.8375 3.42488L11.7375 7.51238C11.9625 7.82488 12.125 8.11238 12.2375 8.38738C12.35 8.64988 12.4125 8.91238 12.4125 9.14988C12.4125 9.44988 12.325 9.74988 12.15 10.0374C11.9875 10.3249 11.75 10.6249 11.45 10.9249L10.5 11.9124C10.3625 12.0499 10.3 12.2124 10.3 12.4124C10.3 12.5124 10.3125 12.5999 10.3375 12.6999C10.375 12.7999 10.4125 12.8749 10.4375 12.9499C10.6625 13.3624 11.05 13.8999 11.6 14.5499C12.1625 15.1999 12.7625 15.8624 13.4125 16.5249C14.0875 17.1874 14.7375 17.7999 15.4 18.3624C16.05 18.9124 16.5875 19.2874 17.0125 19.5124C17.075 19.5374 17.15 19.5749 17.2375 19.6124C17.3375 19.6499 17.4375 19.6624 17.55 19.6624C17.7625 19.6624 17.925 19.5874 18.0625 19.4499L19.0125 18.5124C19.325 18.1999 19.625 17.9624 19.9125 17.8124C20.2 17.6374 20.4875 17.5499 20.8 17.5499C21.0375 17.5499 21.2875 17.5999 21.5625 17.7124C21.8375 17.8249 22.125 17.9874 22.4375 18.1999L26.575 21.1374C26.9 21.3624 27.125 21.6249 27.2625 21.9374C27.3875 22.2499 27.4625 22.5624 27.4625 22.9124Z" stroke="url(#paint0_linear_294_172)" stroke-width="1.5" stroke-miterlimit="10"/>
  <path d="M23.125 11.2501C23.125 10.5001 22.5375 9.35012 21.6625 8.41262C20.8625 7.55012 19.8 6.87512 18.75 6.87512" stroke="url(#paint1_linear_294_172)" stroke-width="1.5" stroke-linecap="round" stroke-linejoin="round"/>
  <path d="M27.5 11.2499C27.5 6.41238 23.5875 2.49988 18.75 2.49988" stroke="url(#paint2_linear_294_172)" stroke-width="1.5" stroke-linecap="round" stroke-linejoin="round"/>
  <defs>
    <linearGradient id="paint0_linear_294_172" x1="14.9812" y1="2.49988" x2="14.9812" y2="27.4999" gradientUnits="userSpaceOnUse">
      <stop stop-color="white"/>
      <stop offset="1" stop-color="white" stop-opacity="0.5"/>
    </linearGradient>
    <linearGradient id="paint1_linear_294_172" x1="20.9375" y1="6.87512" x2="20.9375" y2="11.2501" gradientUnits="userSpaceOnUse">
      <stop stop-color="white"/>
      <stop offset="1" stop-color="white" stop-opacity="0.5"/>
    </linearGradient>
    <linearGradient id="paint2_linear_294_172" x1="23.125" y1="2.49988" x2="23.125" y2="11.2499" gradientUnits="userSpaceOnUse">
      <stop stop-color="white"/>
      <stop offset="1" stop-color="white" stop-opacity="0.5"/>
    </linearGradient>
  </defs>
</svg>